<svg width="1114" height="1118" viewBox="0 0 1114 1118" fill="none" xmlns="http://www.w3.org/2000/svg">
<path d="M1068.25 966.063L266.125 164C298.083 127 334.625 94.5834 375.75 66.75C416.875 38.9167 461.875 16.7708 510.75 0.3125C506.417 97.8125 520.375 192.583 552.625 284.625C584.792 376.667 635.458 457.25 704.625 526.375C773.792 595.542 853.375 647.208 943.375 681.375C1033.38 715.625 1127.15 730.583 1224.69 726.25C1208.44 774.25 1187.35 818.417 1161.44 858.75C1135.52 899.083 1104.5 934.854 1068.25 966.063ZM1069.06 1231.75L902.687 1065.44C870.479 1077.4 837.292 1086.56 803.125 1092.94C768.958 1099.27 733.687 1102.44 697.312 1102.44C618.604 1102.44 544.771 1087.58 475.812 1057.88C406.896 1028.13 346.646 987.479 295.062 935.938C243.479 884.396 202.833 824.146 173.125 755.188C143.417 686.229 128.563 612.396 128.563 533.688C128.563 498.104 131.937 463.229 138.687 429.063C145.479 394.896 154.854 361.708 166.813 329.5L0.75 163.5L45.3125 118.938L1113.62 1187.12L1069.06 1231.75Z" fill="#FFE2E2" fill-opacity="0.6"/>
</svg>
