<svg width="560" height="183" viewBox="0 0 560 183" fill="none" xmlns="http://www.w3.org/2000/svg">
<path d="M185.15 125.25C185.9 126.6 186.05 128.25 185.9 129.6C185.75 131.1 185.15 132.3 184.25 133.35C183.5 134.25 182.6 135 181.7 135.6C180.95 136.05 179.9 136.35 178.4 136.35C177.5 136.35 176.45 136.2 175.4 135.75C174.35 135.3 173.3 134.7 172.25 133.8C171.2 133.2 170.15 132.45 169.1 131.55L164.9 127.95C161.45 131.1 157.25 133.35 152.9 134.7C140.3 138.75 125.3 135.75 115.25 125.1C103.4 112.65 100.1 91.65 101.3 75.6C102.35 60.45 108.35 37.8 124.7 32.85C144.5 26.7 158 31.5 166.85 41.55C180.95 57.45 182.75 86.7 177.2 106.95L174.5 114.15C177.5 117 180.65 119.55 181.4 120.45C182.75 121.8 184.25 123.3 185.15 125.25ZM126.95 109.65C132.95 117.45 142.4 118.8 149.75 114.45C147.05 111.75 144.2 109.2 143.6 108.45C142.1 106.95 140.9 105 140.15 103.05C139.4 101.55 139.1 100.05 139.4 98.55C139.7 97.05 140.3 95.7 141.35 94.5C142.4 93.75 143.15 93 144.05 92.4C144.95 91.8 146.45 91.65 147.8 91.65C148.85 91.65 149.75 91.95 150.8 92.7C151.7 93.15 152.9 93.9 153.95 94.65C155 95.55 156.2 96.6 157.1 97.5C157.85 98.25 158.75 99 159.65 99.75C162.65 86.4 162.65 69.45 154.55 56.7C149.75 49.2 142.4 45.6 131.9 50.85C123.65 55.2 120.2 68.4 119.6 78C119.15 88.35 120.65 101.7 126.95 109.65ZM259.769 100.2C259.169 113.25 259.169 128.25 246.269 134.25C235.019 139.65 219.869 138.9 210.269 132.9C200.519 127.05 199.019 112.65 198.569 102.15C198.119 95.25 198.119 88.5 198.569 81.75C198.719 76.5 197.819 67.8 203.219 64.95C209.219 61.8 215.069 64.65 216.119 73.35C216.719 78 216.419 84 216.719 88.65C217.319 102.3 215.519 123.15 235.019 117.45C239.519 116.1 240.719 110.7 240.719 99.75C240.719 90.3 239.819 74.85 241.469 69.6C243.419 62.55 255.869 62.1 258.119 69.15C260.369 75.6 260.069 89.85 259.769 100.2ZM290.994 79.05C290.994 90.15 291.444 108.3 290.994 120.6C290.694 126.6 290.094 135.75 281.544 135.3C275.394 135 272.844 129.75 272.544 120.75C272.394 111.45 272.094 96 272.244 86.55C272.394 81 271.194 69.45 274.944 64.35C277.644 61.05 286.644 60.9 289.194 64.65C290.694 67.05 290.994 74.1 290.994 79.05ZM285.294 48.75C279.144 50.4 274.644 46.95 273.744 41.25C272.094 32.7 280.494 27.9 287.544 33C294.444 37.95 293.244 46.2 285.294 48.75ZM356.074 115.35C360.724 114 366.874 114.45 366.874 121.2C366.874 126.15 361.474 129.9 357.574 131.55C351.874 134.1 343.924 135.6 335.974 135.3C325.174 134.85 314.374 131.25 308.824 122.4C303.724 113.7 302.974 101.85 304.924 92.4C307.174 80.85 312.724 73.8 320.074 69.45C328.924 64.35 341.224 64.2 351.274 68.7C358.024 71.7 363.724 76.8 366.574 84C368.074 87.6 368.824 95.1 367.324 99.45C364.774 106.65 360.574 106.8 349.624 107.25C340.024 107.7 333.274 107.25 321.724 106.95C320.524 115.05 329.374 118.2 336.724 118.8C343.474 119.25 349.474 117.3 356.074 115.35ZM349.624 86.25C347.824 84.15 345.874 82.5 343.624 81.45C340.474 80.1 336.724 80.4 333.574 81.3C330.424 82.05 328.324 83.4 326.224 85.8C325.624 86.4 321.424 92.85 323.074 92.85H352.474C352.324 90 351.574 88.35 349.624 86.25ZM438.243 69.75C439.743 73.5 438.393 79.2 434.943 80.55C431.493 82.05 421.893 82.65 416.943 82.8C417.393 94.8 417.843 108.6 417.543 117.3C417.543 123.45 417.843 133.95 413.793 135.45C407.643 138 401.943 136.5 399.843 133.35C396.543 128.25 396.993 118.65 397.143 113.4C397.293 105 397.443 93.75 397.443 82.95H395.193C390.393 82.95 379.293 82.8 376.443 79.35C371.943 74.1 375.243 66.6 380.343 65.25C383.943 64.35 391.443 64.35 397.293 64.5C397.143 62.55 397.143 60.6 396.993 58.8C396.693 53.85 396.543 43.05 401.043 39.6C407.043 34.8 413.943 39.15 415.443 44.7C416.793 49.35 416.643 58.65 416.643 64.5H418.143C423.993 64.65 435.243 62.55 438.243 69.75ZM470.901 123.9C470.751 124.95 470.601 125.85 470.601 126.75L469.701 129.9C469.551 130.2 469.401 130.5 469.251 130.65L468.801 131.55C468.201 132.75 467.151 133.65 466.101 134.25C463.701 135.45 461.151 135.75 458.451 135.15C456.801 135 455.301 134.4 454.401 133.65C453.501 133.05 452.751 132.3 452.301 131.1C451.851 130.05 451.551 129 451.401 128.1C451.101 127.05 450.951 126.15 450.951 125.4V41.4C450.951 40.05 451.101 39 451.251 37.95C451.401 36.6 451.701 35.7 452.151 34.5C452.451 33.6 453.051 32.7 453.801 32.1C454.851 31.35 456.051 30.75 457.251 30.6C458.601 30.15 459.801 30.15 461.301 30.15C462.801 30.15 464.451 30.6 466.101 31.35C467.451 32.1 468.501 33.3 469.101 34.65C470.001 36.45 470.601 38.4 470.601 40.2C470.751 42.15 470.901 47.25 470.901 49.2V49.8C471.201 56.25 471.201 61.8 471.051 68.7C471.051 75.45 470.901 81.75 470.901 87.9V119.4C470.901 120.15 471.051 120.9 471.051 121.65C471.051 122.55 471.051 123.15 470.901 123.9ZM552.028 69C552.928 70.35 553.378 71.85 553.228 73.5C553.228 75.6 552.928 77.55 552.028 79.5C551.278 81.45 549.028 86.55 548.128 88.35L547.828 89.1C545.128 95.25 542.578 100.8 539.428 107.4C536.278 113.85 533.278 119.85 530.578 125.7C529.828 127.2 529.228 128.85 528.328 130.35L521.128 145.8C518.578 151.05 516.328 156 513.628 160.95C513.028 162 512.578 162.75 512.128 163.8C510.778 166.2 507.778 169.05 504.778 169.2C502.228 169.35 499.828 168.6 497.728 166.8C496.378 166.05 495.478 165 494.878 163.8C494.428 162.75 494.278 161.55 494.278 160.35C494.428 159.15 494.578 158.1 494.728 157.05C495.178 156 495.328 154.95 495.628 154.35C495.928 153.6 496.078 153.15 496.378 153.15L507.328 129.45C506.278 127.2 505.228 124.8 504.478 123C499.228 110.4 492.928 95.1 486.478 83.25C484.228 79.2 481.678 74.1 484.678 69.45C487.978 63.3 495.928 64.8 499.228 68.7C502.528 72.3 504.328 76.95 506.128 81.45C509.878 89.4 514.078 98.55 517.978 106.95L525.778 90.45C527.278 87.3 528.628 84.3 529.978 81.45C531.628 78 532.978 74.25 534.928 71.25C535.228 70.5 535.828 69.9 536.128 69.15C537.028 67.95 537.628 67.2 538.528 66.3C539.428 65.55 540.178 64.95 541.078 64.8C542.428 64.35 543.778 64.35 544.978 64.5C546.028 64.8 547.228 65.25 548.578 65.85C550.078 66.45 551.278 67.65 552.028 69Z" fill="url(#paint0_linear_447_53)"/>
<path d="M115.125 148.208L34.9125 68.0016C38.1083 64.3016 41.7625 61.0599 45.875 58.2766C49.9875 55.4932 54.4875 53.2786 59.375 51.6328C58.9417 61.3828 60.3375 70.8599 63.5625 80.0641C66.7792 89.2682 71.8458 97.3266 78.7625 104.239C85.6792 111.156 93.6375 116.322 102.638 119.739C111.638 123.164 121.015 124.66 130.769 124.227C129.144 129.027 127.035 133.443 124.444 137.477C121.852 141.51 118.75 145.087 115.125 148.208ZM115.206 174.777L98.5687 158.145C95.3479 159.341 92.0292 160.258 88.6125 160.895C85.1958 161.529 81.6687 161.845 78.0312 161.845C70.1604 161.845 62.7771 160.36 55.8812 157.389C48.9896 154.414 42.9646 150.349 37.8062 145.195C32.6479 140.041 28.5833 134.016 25.6125 127.12C22.6417 120.224 21.1563 112.841 21.1563 104.97C21.1563 101.412 21.4937 97.9245 22.1687 94.5078C22.8479 91.0911 23.7854 87.7724 24.9813 84.5516L8.375 67.9516L12.8312 63.4953L119.662 170.314L115.206 174.777Z" fill="#FFE2E2"/>
<defs>
<linearGradient id="paint0_linear_447_53" x1="95" y1="77.5" x2="560" y2="77.5" gradientUnits="userSpaceOnUse">
<stop stop-color="#FFE2E2"/>
<stop offset="1" stop-color="#FF9B9B"/>
</linearGradient>
</defs>
</svg>
