<svg width="18" height="15" viewBox="0 0 18 15" fill="none" xmlns="http://www.w3.org/2000/svg">
<path fill-rule="evenodd" clip-rule="evenodd" d="M14.4573 11.9251L16.7114 14.2763L16.0167 15L2.33182 0.725421L3.02482 0L5.36073 2.43656C6.48982 1.96546 7.71709 1.70687 9 1.70687C12.9338 1.70687 16.3407 4.13746 18 7.68093C17.1996 9.39745 15.9771 10.8619 14.4573 11.9251ZM6.12491 3.23452L7.48636 4.65464C8.10404 4.31782 8.80867 4.19548 9.49764 4.30545C10.1866 4.41542 10.8239 4.75195 11.3168 5.26603C11.8096 5.78011 12.1323 6.44489 12.2377 7.16355C12.3431 7.88221 12.2258 8.6172 11.9029 9.26149L13.7479 11.186C15.0357 10.3326 16.1239 9.13519 16.8938 7.68178C15.2885 4.65123 12.3005 2.731 9 2.731C8.02152 2.73164 7.04994 2.9018 6.12491 3.23452ZM11.1584 8.48487C11.3044 8.05875 11.3314 7.59815 11.2362 7.15665C11.1411 6.71515 10.9278 6.3109 10.621 5.99093C10.3143 5.67095 9.9267 5.44841 9.50344 5.34918C9.08018 5.24995 8.6386 5.27812 8.23009 5.43042L11.1584 8.48487ZM12.6393 12.9262C11.5102 13.3972 10.2829 13.6558 9 13.6558C5.06618 13.6558 1.65927 11.2253 0 7.68178C0.800444 5.96526 2.02288 4.50079 3.54273 3.43764L4.25209 4.17757C2.9385 5.05183 1.85671 6.25654 1.10618 7.68093C2.71145 10.7106 5.69945 12.6309 9 12.6309C9.97848 12.6302 10.9501 12.4601 11.8751 12.1273L12.6393 12.9262ZM6.09791 6.10207L6.84164 6.8787C6.69564 7.30481 6.66863 7.76541 6.76375 8.20691C6.85888 8.64841 7.07223 9.05266 7.37899 9.37264C7.68575 9.69261 8.0733 9.91516 8.49656 10.0144C8.91982 10.1136 9.3614 10.0854 9.76991 9.93315L10.5145 10.7081C9.89678 11.0449 9.19215 11.1672 8.50318 11.0573C7.81421 10.9473 7.17689 10.6108 6.68404 10.0967C6.1912 9.5826 5.86857 8.91782 5.76314 8.19916C5.65771 7.4805 5.775 6.74636 6.09791 6.10207Z" fill="#647A73"/>
</svg>
