<svg width="119" height="39" viewBox="0 0 119 39" fill="none" xmlns="http://www.w3.org/2000/svg">
<path d="M26.8615 30.8779L8.14521 12.1631C8.8909 11.2998 9.74354 10.5434 10.7031 9.89396C11.6627 9.24451 12.7127 8.72778 13.8531 8.34375C13.752 10.6188 14.0777 12.8301 14.8302 14.9777C15.5808 17.1253 16.763 19.0056 18.3769 20.6185C19.9908 22.2324 21.8477 23.438 23.9477 24.2352C26.0477 25.0344 28.2357 25.3834 30.5117 25.2823C30.1325 26.4023 29.6406 27.4328 29.0358 28.374C28.4311 29.3151 27.7073 30.1497 26.8615 30.8779ZM26.8804 37.0773L22.9983 33.1967C22.2468 33.4757 21.4724 33.6896 20.6752 33.8383C19.878 33.9861 19.055 34.06 18.2062 34.06C16.3697 34.06 14.6469 33.7134 13.0379 33.0202C11.4299 32.326 10.024 31.3776 8.82042 30.175C7.61681 28.9724 6.6684 27.5665 5.97521 25.9575C5.28201 24.3485 4.93542 22.6257 4.93542 20.7892C4.93542 19.9589 5.01417 19.1451 5.17167 18.3479C5.33014 17.5507 5.54889 16.7763 5.82792 16.0248L1.95312 12.1515L2.99292 11.1117L27.9202 36.036L26.8804 37.0773Z" fill="#E5E5E5"/>
<path d="M38.232 26.48C38.392 26.768 38.424 27.12 38.392 27.408C38.36 27.728 38.232 27.984 38.04 28.208C37.88 28.4 37.688 28.56 37.496 28.688C37.336 28.784 37.112 28.848 36.792 28.848C36.6 28.848 36.376 28.816 36.152 28.72C35.928 28.624 35.704 28.496 35.48 28.304C35.256 28.176 35.032 28.016 34.808 27.824L33.912 27.056C33.176 27.728 32.28 28.208 31.352 28.496C28.664 29.36 25.464 28.72 23.32 26.448C20.792 23.792 20.088 19.312 20.344 15.888C20.568 12.656 21.848 7.824 25.336 6.768C29.56 5.456 32.44 6.48 34.328 8.624C37.336 12.016 37.72 18.256 36.536 22.576L35.96 24.112C36.6 24.72 37.272 25.264 37.432 25.456C37.72 25.744 38.04 26.064 38.232 26.48ZM25.816 23.152C27.096 24.816 29.112 25.104 30.68 24.176C30.104 23.6 29.496 23.056 29.368 22.896C29.048 22.576 28.792 22.16 28.632 21.744C28.472 21.424 28.408 21.104 28.472 20.784C28.536 20.464 28.664 20.176 28.888 19.92C29.112 19.76 29.272 19.6 29.464 19.472C29.656 19.344 29.976 19.312 30.264 19.312C30.488 19.312 30.68 19.376 30.904 19.536C31.096 19.632 31.352 19.792 31.576 19.952C31.8 20.144 32.056 20.368 32.248 20.56C32.408 20.72 32.6 20.88 32.792 21.04C33.432 18.192 33.432 14.576 31.704 11.856C30.68 10.256 29.112 9.488 26.872 10.608C25.112 11.536 24.376 14.352 24.248 16.4C24.152 18.608 24.472 21.456 25.816 23.152ZM54.1508 21.136C54.0228 23.92 54.0228 27.12 51.2708 28.4C48.8708 29.552 45.6388 29.392 43.5908 28.112C41.5108 26.864 41.1908 23.792 41.0948 21.552C40.9988 20.08 40.9988 18.64 41.0948 17.2C41.1268 16.08 40.9348 14.224 42.0868 13.616C43.3668 12.944 44.6148 13.552 44.8388 15.408C44.9668 16.4 44.9028 17.68 44.9668 18.672C45.0948 21.584 44.7108 26.032 48.8708 24.816C49.8308 24.528 50.0868 23.376 50.0868 21.04C50.0868 19.024 49.8948 15.728 50.2468 14.608C50.6628 13.104 53.3188 13.008 53.7988 14.512C54.2788 15.888 54.2148 18.928 54.1508 21.136ZM60.812 16.624C60.812 18.992 60.908 22.864 60.812 25.488C60.748 26.768 60.62 28.72 58.796 28.624C57.484 28.56 56.94 27.44 56.876 25.52C56.844 23.536 56.78 20.24 56.812 18.224C56.844 17.04 56.588 14.576 57.388 13.488C57.964 12.784 59.884 12.752 60.428 13.552C60.748 14.064 60.812 15.568 60.812 16.624ZM59.596 10.16C58.284 10.512 57.324 9.776 57.132 8.56C56.78 6.736 58.572 5.712 60.076 6.8C61.548 7.856 61.292 9.616 59.596 10.16ZM74.6958 24.368C75.6878 24.08 76.9998 24.176 76.9998 25.616C76.9998 26.672 75.8478 27.472 75.0158 27.824C73.7998 28.368 72.1038 28.688 70.4078 28.624C68.1038 28.528 65.7998 27.76 64.6158 25.872C63.5278 24.016 63.3678 21.488 63.7838 19.472C64.2638 17.008 65.4478 15.504 67.0158 14.576C68.9038 13.488 71.5278 13.456 73.6718 14.416C75.1118 15.056 76.3278 16.144 76.9358 17.68C77.2558 18.448 77.4158 20.048 77.0958 20.976C76.5518 22.512 75.6558 22.544 73.3198 22.64C71.2718 22.736 69.8318 22.64 67.3678 22.576C67.1118 24.304 68.9998 24.976 70.5677 25.104C72.0078 25.2 73.2878 24.784 74.6958 24.368ZM73.3198 18.16C72.9358 17.712 72.5198 17.36 72.0398 17.136C71.3678 16.848 70.5677 16.912 69.8958 17.104C69.2238 17.264 68.7758 17.552 68.3278 18.064C68.1998 18.192 67.3038 19.568 67.6558 19.568H73.9278C73.8958 18.96 73.7358 18.608 73.3198 18.16ZM92.2253 14.64C92.5453 15.44 92.2573 16.656 91.5213 16.944C90.7853 17.264 88.7373 17.392 87.6813 17.424C87.7773 19.984 87.8733 22.928 87.8093 24.784C87.8093 26.096 87.8733 28.336 87.0093 28.656C85.6973 29.2 84.4813 28.88 84.0333 28.208C83.3293 27.12 83.4253 25.072 83.4573 23.952C83.4893 22.16 83.5213 19.76 83.5213 17.456H83.0413C82.0173 17.456 79.6493 17.424 79.0413 16.688C78.0813 15.568 78.7853 13.968 79.8733 13.68C80.6413 13.488 82.2413 13.488 83.4893 13.52C83.4573 13.104 83.4573 12.688 83.4253 12.304C83.3613 11.248 83.3293 8.944 84.2893 8.208C85.5693 7.184 87.0413 8.112 87.3613 9.296C87.6493 10.288 87.6173 12.272 87.6173 13.52H87.9373C89.1853 13.552 91.5853 13.104 92.2253 14.64ZM99.1923 26.192C99.1603 26.416 99.1283 26.608 99.1283 26.8L98.9363 27.472C98.9043 27.536 98.8723 27.6 98.8403 27.632L98.7443 27.824C98.6163 28.08 98.3923 28.272 98.1683 28.4C97.6562 28.656 97.1123 28.72 96.5363 28.592C96.1843 28.56 95.8643 28.432 95.6723 28.272C95.4803 28.144 95.3203 27.984 95.2243 27.728C95.1283 27.504 95.0643 27.28 95.0323 27.088C94.9683 26.864 94.9363 26.672 94.9363 26.512V8.592C94.9363 8.304 94.9683 8.08 95.0003 7.856C95.0323 7.568 95.0963 7.376 95.1923 7.12C95.2563 6.928 95.3843 6.736 95.5443 6.608C95.7682 6.448 96.0243 6.32 96.2803 6.288C96.5683 6.192 96.8243 6.192 97.1443 6.192C97.4643 6.192 97.8163 6.288 98.1683 6.448C98.4563 6.608 98.6803 6.864 98.8083 7.152C99.0003 7.536 99.1283 7.952 99.1283 8.336C99.1603 8.752 99.1923 9.84 99.1923 10.256V10.384C99.2563 11.76 99.2563 12.944 99.2243 14.416C99.2243 15.856 99.1923 17.2 99.1923 18.512V25.232C99.1923 25.392 99.2243 25.552 99.2243 25.712C99.2243 25.904 99.2243 26.032 99.1923 26.192ZM116.499 14.48C116.691 14.768 116.787 15.088 116.755 15.44C116.755 15.888 116.691 16.304 116.499 16.72C116.339 17.136 115.859 18.224 115.667 18.608L115.603 18.768C115.027 20.08 114.483 21.264 113.811 22.672C113.139 24.048 112.499 25.328 111.923 26.576C111.763 26.896 111.635 27.248 111.443 27.568L109.907 30.864C109.363 31.984 108.883 33.04 108.307 34.096C108.179 34.32 108.083 34.48 107.987 34.704C107.699 35.216 107.059 35.824 106.419 35.856C105.875 35.888 105.363 35.728 104.915 35.344C104.627 35.184 104.435 34.96 104.307 34.704C104.211 34.48 104.179 34.224 104.179 33.968C104.211 33.712 104.243 33.488 104.275 33.264C104.371 33.04 104.403 32.816 104.467 32.688C104.531 32.528 104.563 32.432 104.627 32.432L106.963 27.376C106.739 26.896 106.515 26.384 106.355 26C105.235 23.312 103.891 20.048 102.515 17.52C102.035 16.656 101.491 15.568 102.131 14.576C102.835 13.264 104.531 13.584 105.235 14.416C105.939 15.184 106.323 16.176 106.707 17.136C107.507 18.832 108.403 20.784 109.235 22.576L110.899 19.056C111.219 18.384 111.507 17.744 111.795 17.136C112.147 16.4 112.435 15.6 112.851 14.96C112.915 14.8 113.043 14.672 113.107 14.512C113.299 14.256 113.427 14.096 113.619 13.904C113.811 13.744 113.971 13.616 114.163 13.584C114.451 13.488 114.739 13.488 114.995 13.52C115.219 13.584 115.475 13.68 115.763 13.808C116.083 13.936 116.339 14.192 116.499 14.48Z" fill="url(#paint0_linear_287_843)"/>
<defs>
<linearGradient id="paint0_linear_287_843" x1="119" y1="16.5" x2="19" y2="16.5" gradientUnits="userSpaceOnUse">
<stop stop-color="#FFAABA"/>
<stop offset="1" stop-color="#E5E5E5"/>
</linearGradient>
</defs>
</svg>
