<svg width="100" height="100" viewBox="0 0 100 100" fill="none" xmlns="http://www.w3.org/2000/svg">
<path d="M76.7526 76.8052L23.2776 23.3344C25.4082 20.8677 27.8443 18.7066 30.5859 16.851C33.3276 14.9955 36.3276 13.5191 39.5859 12.4219C39.297 18.9219 40.2276 25.2399 42.3776 31.376C44.522 37.5122 47.8998 42.8844 52.5109 47.4927C57.122 52.1038 62.4276 55.5483 68.4276 57.826C74.4276 60.1094 80.679 61.1066 87.1818 60.8177C86.0984 64.0177 84.6929 66.9622 82.9651 69.651C81.2373 72.3399 79.1693 74.7247 76.7526 76.8052ZM76.8068 94.5177L65.7151 83.4302C63.5679 84.2274 61.3554 84.8385 59.0776 85.2635C56.7998 85.6858 54.4484 85.8969 52.0234 85.8969C46.7762 85.8969 41.854 84.9066 37.2568 82.9261C32.6623 80.9427 28.6457 78.233 25.2068 74.7969C21.7679 71.3608 19.0582 67.3441 17.0776 62.7469C15.097 58.1497 14.1068 53.2274 14.1068 47.9802C14.1068 45.608 14.3318 43.283 14.7818 41.0052C15.2345 38.7274 15.8595 36.5149 16.6568 34.3677L5.58594 23.301L8.55677 20.3302L79.7776 91.5427L76.8068 94.5177Z" fill="url(#paint0_linear_296_996)"/>
<defs>
<linearGradient id="paint0_linear_296_996" x1="46.3839" y1="12.4219" x2="46.3839" y2="94.5177" gradientUnits="userSpaceOnUse">
<stop stop-color="#FFEDED"/>
<stop offset="1" stop-color="#FFA8A8"/>
</linearGradient>
</defs>
</svg>
