<svg width="18" height="16" viewBox="0 0 18 16" fill="none" xmlns="http://www.w3.org/2000/svg">
<path fill-rule="evenodd" clip-rule="evenodd" d="M9 12.9714C12.3005 12.9714 15.2885 11.0429 16.8938 8C15.2885 4.95714 12.3005 3.02857 9 3.02857C5.69945 3.02857 2.71145 4.95714 1.10618 8C2.71145 11.0429 5.69945 12.9714 9 12.9714ZM9 2C12.9338 2 16.3407 4.44114 18 8C16.3407 11.5589 12.9338 14 9 14C5.06618 14 1.65927 11.5589 0 8C1.65927 4.44114 5.06618 2 9 2ZM9 10.4C9.60759 10.4 10.1903 10.1471 10.6199 9.69706C11.0495 9.24697 11.2909 8.63652 11.2909 8C11.2909 7.36348 11.0495 6.75303 10.6199 6.30294C10.1903 5.85286 9.60759 5.6 9 5.6C8.39241 5.6 7.80971 5.85286 7.38008 6.30294C6.95045 6.75303 6.70909 7.36348 6.70909 8C6.70909 8.63652 6.95045 9.24697 7.38008 9.69706C7.80971 10.1471 8.39241 10.4 9 10.4ZM9 11.4286C8.13202 11.4286 7.29959 11.0673 6.68583 10.4244C6.07208 9.78138 5.72727 8.90931 5.72727 8C5.72727 7.09069 6.07208 6.21862 6.68583 5.57563C7.29959 4.93265 8.13202 4.57143 9 4.57143C9.86798 4.57143 10.7004 4.93265 11.3142 5.57563C11.9279 6.21862 12.2727 7.09069 12.2727 8C12.2727 8.90931 11.9279 9.78138 11.3142 10.4244C10.7004 11.0673 9.86798 11.4286 9 11.4286Z" fill="#647A73"/>
</svg>
