<svg width="50" height="50" viewBox="0 0 50 50" fill="none" xmlns="http://www.w3.org/2000/svg">
<path d="M38.3724 38.4026L11.6349 11.6672C12.7002 10.4339 13.9182 9.3533 15.2891 8.42552C16.6599 7.49774 18.1599 6.75955 19.7891 6.21094C19.6446 9.46094 20.1099 12.62 21.1849 15.688C22.2571 18.7561 23.946 21.4422 26.2516 23.7464C28.5571 26.0519 31.2099 27.7741 34.2099 28.913C37.2099 30.0547 40.3356 30.5533 43.587 30.4089C43.0453 32.0089 42.3425 33.4811 41.4786 34.8255C40.6148 36.17 39.5807 37.3623 38.3724 38.4026ZM38.3995 47.2589L32.8536 41.7151C31.78 42.1137 30.6738 42.4193 29.5349 42.6318C28.396 42.8429 27.2203 42.9484 26.0078 42.9484C23.3842 42.9484 20.9231 42.4533 18.6245 41.463C16.3273 40.4714 14.3189 39.1165 12.5995 37.3984C10.88 35.6804 9.52517 33.6721 8.5349 31.3734C7.54462 29.0748 7.04948 26.6137 7.04948 23.9901C7.04948 22.804 7.16198 21.6415 7.38698 20.5026C7.61337 19.3637 7.92587 18.2575 8.32448 17.1839L2.78906 11.6505L4.27448 10.1651L39.8849 45.7714L38.3995 47.2589Z" fill="url(#paint0_linear_373_58)"/>
<defs>
<linearGradient id="paint0_linear_373_58" x1="23.188" y1="6.21094" x2="23.188" y2="47.2589" gradientUnits="userSpaceOnUse">
<stop stop-color="#FFEDED"/>
<stop offset="1" stop-color="#FFA8A8"/>
</linearGradient>
</defs>
</svg>
