<svg width="20" height="20" viewBox="0 0 20 20" fill="none" xmlns="http://www.w3.org/2000/svg">
<path d="M10.0031 16.8031C6.24313 16.8031 3.20312 13.7631 3.20312 10.0031C3.20312 6.24313 6.24313 3.20312 10.0031 3.20312C13.7631 3.20312 16.8031 6.24313 16.8031 10.0031C16.8031 13.7631 13.7631 16.8031 10.0031 16.8031ZM10.0031 4.00313C6.68313 4.00313 4.00313 6.68313 4.00313 10.0031C4.00313 13.3231 6.68313 16.0031 10.0031 16.0031C13.3231 16.0031 16.0031 13.3231 16.0031 10.0031C16.0031 6.68313 13.3231 4.00313 10.0031 4.00313Z" fill="#4DFFA9"/>
<path d="M10.0031 16.8031C6.24313 16.8031 3.20312 13.7631 3.20312 10.0031C3.20312 6.24313 6.24313 3.20312 10.0031 3.20312C13.7631 3.20312 16.8031 6.24313 16.8031 10.0031C16.8031 13.7631 13.7631 16.8031 10.0031 16.8031ZM10.0031 4.00313C6.68313 4.00313 4.00313 6.68313 4.00313 10.0031C4.00313 13.3231 6.68313 16.0031 10.0031 16.0031C13.3231 16.0031 16.0031 13.3231 16.0031 10.0031C16.0031 6.68313 13.3231 4.00313 10.0031 4.00313Z" fill="#4DFFA9"/>
<path d="M10.0031 16.8031C6.24313 16.8031 3.20312 13.7631 3.20312 10.0031C3.20312 6.24313 6.24313 3.20312 10.0031 3.20312C13.7631 3.20312 16.8031 6.24313 16.8031 10.0031C16.8031 13.7631 13.7631 16.8031 10.0031 16.8031ZM10.0031 4.00313C6.68313 4.00313 4.00313 6.68313 4.00313 10.0031C4.00313 13.3231 6.68313 16.0031 10.0031 16.0031C13.3231 16.0031 16.0031 13.3231 16.0031 10.0031C16.0031 6.68313 13.3231 4.00313 10.0031 4.00313Z" fill="#83FFC3"/>
<path d="M10.0031 16.8031C6.24313 16.8031 3.20312 13.7631 3.20312 10.0031C3.20312 6.24313 6.24313 3.20312 10.0031 3.20312C13.7631 3.20312 16.8031 6.24313 16.8031 10.0031C16.8031 13.7631 13.7631 16.8031 10.0031 16.8031ZM10.0031 4.00313C6.68313 4.00313 4.00313 6.68313 4.00313 10.0031C4.00313 13.3231 6.68313 16.0031 10.0031 16.0031C13.3231 16.0031 16.0031 13.3231 16.0031 10.0031C16.0031 6.68313 13.3231 4.00313 10.0031 4.00313Z" fill="#83FFC3"/>
<path d="M10.0031 16.8031C6.24313 16.8031 3.20312 13.7631 3.20312 10.0031C3.20312 6.24313 6.24313 3.20312 10.0031 3.20312C13.7631 3.20312 16.8031 6.24313 16.8031 10.0031C16.8031 13.7631 13.7631 16.8031 10.0031 16.8031ZM10.0031 4.00313C6.68313 4.00313 4.00313 6.68313 4.00313 10.0031C4.00313 13.3231 6.68313 16.0031 10.0031 16.0031C13.3231 16.0031 16.0031 13.3231 16.0031 10.0031C16.0031 6.68313 13.3231 4.00313 10.0031 4.00313Z" fill="#FFAABA"/>
<path d="M6.39844 9.60156H13.5984V10.4016H6.39844V9.60156Z" fill="#4DFFA9"/>
<path d="M6.39844 9.60156H13.5984V10.4016H6.39844V9.60156Z" fill="#4DFFA9"/>
<path d="M6.39844 9.60156H13.5984V10.4016H6.39844V9.60156Z" fill="#83FFC3"/>
<path d="M6.39844 9.60156H13.5984V10.4016H6.39844V9.60156Z" fill="#83FFC3"/>
<path d="M6.39844 9.60156H13.5984V10.4016H6.39844V9.60156Z" fill="#FFAABA"/>
<path d="M9.60156 6.39844H10.4016V13.5984H9.60156V6.39844Z" fill="#4DFFA9"/>
<path d="M9.60156 6.39844H10.4016V13.5984H9.60156V6.39844Z" fill="#4DFFA9"/>
<path d="M9.60156 6.39844H10.4016V13.5984H9.60156V6.39844Z" fill="#83FFC3"/>
<path d="M9.60156 6.39844H10.4016V13.5984H9.60156V6.39844Z" fill="#83FFC3"/>
<path d="M9.60156 6.39844H10.4016V13.5984H9.60156V6.39844Z" fill="#FFAABA"/>
</svg>
